<?xml version="1.0" encoding="UTF-8"?>
<svg xmlns="http://www.w3.org/2000/svg" xmlns:xlink="http://www.w3.org/1999/xlink" width="50pt" height="50pt" viewBox="0 0 50 50" version="1.1">
<g id="surface433809">
<path style=" stroke:none;fill-rule:nonzero;fill:rgb(90.588235%,29.803922%,23.529412%);fill-opacity:1;" d="M 24.972656 4.144531 C 24.054688 4.160156 23.320312 4.914062 23.332031 5.832031 L 23.332031 6.667969 L 14.167969 6.667969 C 13.722656 6.660156 13.289062 6.832031 12.972656 7.148438 C 12.65625 7.460938 12.476562 7.886719 12.476562 8.332031 L 10 8.332031 C 9.398438 8.324219 8.839844 8.640625 8.535156 9.160156 C 8.234375 9.679688 8.234375 10.320312 8.535156 10.839844 C 8.839844 11.359375 9.398438 11.675781 10 11.667969 L 40 11.667969 C 40.601562 11.675781 41.160156 11.359375 41.464844 10.839844 C 41.765625 10.320312 41.765625 9.679688 41.464844 9.160156 C 41.160156 8.640625 40.601562 8.324219 40 8.332031 L 37.523438 8.332031 C 37.523438 7.886719 37.34375 7.460938 37.027344 7.148438 C 36.710938 6.832031 36.277344 6.660156 35.832031 6.667969 L 26.667969 6.667969 L 26.667969 5.832031 C 26.671875 5.382812 26.496094 4.949219 26.175781 4.628906 C 25.859375 4.3125 25.425781 4.136719 24.972656 4.144531 Z M 10 15 L 12.988281 40.390625 C 13.183594 42.070312 14.605469 43.332031 16.296875 43.332031 L 33.703125 43.332031 C 35.394531 43.332031 36.8125 42.070312 37.011719 40.390625 L 40 15 Z M 10 15 "/>
</g>
</svg>
